<svg class="svg-icon" style="width: 1em; height: 1em;vertical-align: middle;fill: currentColor;overflow: hidden;" viewBox="0 0 1024 1024" version="1.1" xmlns="http://www.w3.org/2000/svg"><path d="M486.4 637.44V179.2a25.6 25.6 0 0 1 51.2 0v458.24l101.12-101.12a25.6 25.6 0 0 1 36.1984 36.1984L512 735.4368l-162.9184-162.9184a25.6 25.6 0 0 1 36.1984-36.1984L486.4 637.44z m409.6 28.16a25.6 25.6 0 0 1 51.2 0v204.8a76.8 76.8 0 0 1-76.8 76.8H153.6A76.8 76.8 0 0 1 76.8 870.4v-204.8a25.6 25.6 0 0 1 51.2 0v204.8a25.6 25.6 0 0 0 25.6 25.6h716.8a25.6 25.6 0 0 0 25.6-25.6v-204.8z" fill="#9DA7B2" /></svg>