<?xml version="1.0" encoding="UTF-8"?>
<!DOCTYPE svg PUBLIC "-//W3C//DTD SVG 1.1//EN" "http://www.w3.org/Graphics/SVG/1.1/DTD/svg11.dtd">
<svg xmlns="http://www.w3.org/2000/svg" version="1.1" width="64px" height="64px" style="shape-rendering:geometricPrecision; text-rendering:geometricPrecision; image-rendering:optimizeQuality; fill-rule:evenodd; clip-rule:evenodd" xmlns:xlink="http://www.w3.org/1999/xlink">
<g><path style="opacity:0.981" fill="#fd7d13" d="M 1.5,7.5 C 21.5,7.5 41.5,7.5 61.5,7.5C 61.5,23.5 61.5,39.5 61.5,55.5C 41.5,55.5 21.5,55.5 1.5,55.5C 1.5,39.5 1.5,23.5 1.5,7.5 Z M 4.5,9.5 C 22.5031,9.33339 40.5031,9.50006 58.5,10C 59.6562,24.0918 59.8229,38.2585 59,52.5C 40.9069,53.6585 22.7403,53.8252 4.5,53C 3.1746,38.5 3.1746,24 4.5,9.5 Z M 15.5,19.5 C 26.1667,19.5 36.8333,19.5 47.5,19.5C 47.5,27.5 47.5,35.5 47.5,43.5C 36.8333,43.5 26.1667,43.5 15.5,43.5C 15.5,35.5 15.5,27.5 15.5,19.5 Z M 27.5,25.5 C 31.1092,26.9741 34.4425,28.9741 37.5,31.5C 34.672,33.7481 31.672,35.7481 28.5,37.5C 27.5091,33.5546 27.1758,29.5546 27.5,25.5 Z"/></g>
<g><path style="opacity:0.881" fill="#fc7d13" d="M 5.5,11.5 C 6.58617,11.62 7.25284,12.2867 7.5,13.5C 7.16667,14.1667 6.83333,14.8333 6.5,15.5C 5.57131,14.3112 5.23798,12.9778 5.5,11.5 Z"/></g>
<g><path style="opacity:0.881" fill="#fc7d13" d="M 10.5,11.5 C 11.5862,11.62 12.2528,12.2867 12.5,13.5C 12.1667,14.1667 11.8333,14.8333 11.5,15.5C 10.5713,14.3112 10.238,12.9778 10.5,11.5 Z"/></g>
<g><path style="opacity:0.881" fill="#fc7d13" d="M 15.5,11.5 C 16.5862,11.62 17.2528,12.2867 17.5,13.5C 17.1667,14.1667 16.8333,14.8333 16.5,15.5C 15.5713,14.3112 15.238,12.9778 15.5,11.5 Z"/></g>
<g><path style="opacity:0.881" fill="#fc7d13" d="M 20.5,11.5 C 21.5862,11.62 22.2528,12.2867 22.5,13.5C 22.1667,14.1667 21.8333,14.8333 21.5,15.5C 20.5713,14.3112 20.238,12.9778 20.5,11.5 Z"/></g>
<g><path style="opacity:0.881" fill="#fc7d13" d="M 25.5,11.5 C 26.5862,11.62 27.2528,12.2867 27.5,13.5C 27.1667,14.1667 26.8333,14.8333 26.5,15.5C 25.5713,14.3112 25.238,12.9778 25.5,11.5 Z"/></g>
<g><path style="opacity:0.881" fill="#fc7d13" d="M 30.5,11.5 C 31.5862,11.62 32.2528,12.2867 32.5,13.5C 32.1667,14.1667 31.8333,14.8333 31.5,15.5C 30.5713,14.3112 30.238,12.9778 30.5,11.5 Z"/></g>
<g><path style="opacity:0.881" fill="#fc7d13" d="M 35.5,11.5 C 36.5862,11.62 37.2528,12.2867 37.5,13.5C 37.1667,14.1667 36.8333,14.8333 36.5,15.5C 35.5713,14.3112 35.238,12.9778 35.5,11.5 Z"/></g>
<g><path style="opacity:0.881" fill="#fc7d13" d="M 40.5,11.5 C 41.5862,11.62 42.2528,12.2867 42.5,13.5C 42.1667,14.1667 41.8333,14.8333 41.5,15.5C 40.5713,14.3112 40.238,12.9778 40.5,11.5 Z"/></g>
<g><path style="opacity:0.881" fill="#fc7d13" d="M 45.5,11.5 C 46.5862,11.62 47.2528,12.2867 47.5,13.5C 47.1667,14.1667 46.8333,14.8333 46.5,15.5C 45.5713,14.3112 45.238,12.9778 45.5,11.5 Z"/></g>
<g><path style="opacity:0.881" fill="#fc7d13" d="M 50.5,11.5 C 51.5862,11.62 52.2528,12.2867 52.5,13.5C 52.1667,14.1667 51.8333,14.8333 51.5,15.5C 50.5713,14.3112 50.238,12.9778 50.5,11.5 Z"/></g>
<g><path style="opacity:0.885" fill="#fc7d13" d="M 55.5,11.5 C 56.5862,11.62 57.2528,12.2867 57.5,13.5C 57.1667,14.1667 56.8333,14.8333 56.5,15.5C 55.5713,14.3112 55.238,12.9778 55.5,11.5 Z"/></g>
<g><path style="opacity:0.994" fill="#fc7d13" d="M 5.5,17.5 C 22.8461,17.1672 40.1795,17.5005 57.5,18.5C 54.9135,19.48 52.2469,19.8134 49.5,19.5C 49.5,27.5 49.5,35.5 49.5,43.5C 52.2469,43.1866 54.9135,43.52 57.5,44.5C 40.1667,45.8333 22.8333,45.8333 5.5,44.5C 8.08645,43.52 10.7531,43.1866 13.5,43.5C 13.5,35.5 13.5,27.5 13.5,19.5C 10.3019,20.0356 7.63528,19.369 5.5,17.5 Z M 15.5,19.5 C 15.5,27.5 15.5,35.5 15.5,43.5C 26.1667,43.5 36.8333,43.5 47.5,43.5C 47.5,35.5 47.5,27.5 47.5,19.5C 36.8333,19.5 26.1667,19.5 15.5,19.5 Z M 27.5,25.5 C 27.1758,29.5546 27.5091,33.5546 28.5,37.5C 31.672,35.7481 34.672,33.7481 37.5,31.5C 34.4425,28.9741 31.1092,26.9741 27.5,25.5 Z"/></g>
<g><path style="opacity:0.824" fill="#fc7c13" d="M 25.5,21.5 C 28.0163,21.7553 30.3496,22.5886 32.5,24C 36.3056,25.9859 39.639,28.4859 42.5,31.5C 39.639,34.5141 36.3056,37.0141 32.5,39C 30.3496,40.4114 28.0163,41.2447 25.5,41.5C 25.5,34.8333 25.5,28.1667 25.5,21.5 Z M 27.5,25.5 C 27.1758,29.5546 27.5091,33.5546 28.5,37.5C 31.672,35.7481 34.672,33.7481 37.5,31.5C 34.4425,28.9741 31.1092,26.9741 27.5,25.5 Z"/></g>
<g><path style="opacity:0.885" fill="#fc7d13" d="M 5.5,47.5 C 6.58617,47.62 7.25284,48.2867 7.5,49.5C 7.16667,50.1667 6.83333,50.8333 6.5,51.5C 5.57131,50.3112 5.23798,48.9778 5.5,47.5 Z"/></g>
<g><path style="opacity:0.885" fill="#fc7d13" d="M 10.5,47.5 C 11.5862,47.62 12.2528,48.2867 12.5,49.5C 12.1667,50.1667 11.8333,50.8333 11.5,51.5C 10.5713,50.3112 10.238,48.9778 10.5,47.5 Z"/></g>
<g><path style="opacity:0.885" fill="#fc7d13" d="M 15.5,47.5 C 16.5862,47.62 17.2528,48.2867 17.5,49.5C 17.1667,50.1667 16.8333,50.8333 16.5,51.5C 15.5713,50.3112 15.238,48.9778 15.5,47.5 Z"/></g>
<g><path style="opacity:0.885" fill="#fc7d13" d="M 20.5,47.5 C 21.5862,47.62 22.2528,48.2867 22.5,49.5C 22.1667,50.1667 21.8333,50.8333 21.5,51.5C 20.5713,50.3112 20.238,48.9778 20.5,47.5 Z"/></g>
<g><path style="opacity:0.885" fill="#fc7d13" d="M 25.5,47.5 C 26.5862,47.62 27.2528,48.2867 27.5,49.5C 27.1667,50.1667 26.8333,50.8333 26.5,51.5C 25.5713,50.3112 25.238,48.9778 25.5,47.5 Z"/></g>
<g><path style="opacity:0.885" fill="#fc7d13" d="M 30.5,47.5 C 31.5862,47.62 32.2528,48.2867 32.5,49.5C 32.1667,50.1667 31.8333,50.8333 31.5,51.5C 30.5713,50.3112 30.238,48.9778 30.5,47.5 Z"/></g>
<g><path style="opacity:0.885" fill="#fc7d13" d="M 35.5,47.5 C 36.5862,47.62 37.2528,48.2867 37.5,49.5C 37.1667,50.1667 36.8333,50.8333 36.5,51.5C 35.5713,50.3112 35.238,48.9778 35.5,47.5 Z"/></g>
<g><path style="opacity:0.885" fill="#fc7d13" d="M 40.5,47.5 C 41.5862,47.62 42.2528,48.2867 42.5,49.5C 42.1667,50.1667 41.8333,50.8333 41.5,51.5C 40.5713,50.3112 40.238,48.9778 40.5,47.5 Z"/></g>
<g><path style="opacity:0.885" fill="#fc7d13" d="M 45.5,47.5 C 46.5862,47.62 47.2528,48.2867 47.5,49.5C 47.1667,50.1667 46.8333,50.8333 46.5,51.5C 45.5713,50.3112 45.238,48.9778 45.5,47.5 Z"/></g>
<g><path style="opacity:0.885" fill="#fc7d13" d="M 50.5,47.5 C 51.5862,47.62 52.2528,48.2867 52.5,49.5C 52.1667,50.1667 51.8333,50.8333 51.5,51.5C 50.5713,50.3112 50.238,48.9778 50.5,47.5 Z"/></g>
<g><path style="opacity:0.885" fill="#fc7d13" d="M 55.5,47.5 C 56.5862,47.62 57.2528,48.2867 57.5,49.5C 57.1667,50.1667 56.8333,50.8333 56.5,51.5C 55.5713,50.3112 55.238,48.9778 55.5,47.5 Z"/></g>
</svg>
